<svg xmlns="http://www.w3.org/2000/svg" viewBox="0 0 1200 630" role="img" aria-labelledby="title">
  <title id="title">Eagle Commercial — Ingeniería e integración tecnológica</title>
  <defs><linearGradient id="bg" x1="0" y1="0" x2="1" y2="1"><stop stop-color="#121d2d"/><stop offset=".55" stop-color="#080d15"/><stop offset="1" stop-color="#04070c"/></linearGradient><radialGradient id="glow"><stop stop-color="#5ecaf0" stop-opacity=".4"/><stop offset="1" stop-color="#5ecaf0" stop-opacity="0"/></radialGradient><linearGradient id="gold" x1="0" x2="1"><stop stop-color="#f0d39a"/><stop offset="1" stop-color="#b58b4e"/></linearGradient></defs>
  <rect width="1200" height="630" fill="url(#bg)"/>
  <circle cx="950" cy="310" r="310" fill="url(#glow)" opacity=".3"/>
  <g fill="none" stroke-linecap="round"><circle cx="930" cy="315" r="205" stroke="#8092a7" stroke-opacity=".18"/><circle cx="930" cy="315" r="142" stroke="#d4ae6b" stroke-opacity=".35" stroke-dasharray="6 13"/><circle cx="930" cy="315" r="80" stroke="#62caf0" stroke-opacity=".35"/><path d="M930 315 765 210M930 315l175-70M930 315l129 151M930 315 787 470" stroke="#899aae" stroke-opacity=".3"/><g fill="#63caf0"><circle cx="765" cy="210" r="7"/><circle cx="1059" cy="466" r="7"/></g><g fill="#d5ae69"><circle cx="1105" cy="245" r="7"/><circle cx="787" cy="470" r="7"/></g></g>
  <g transform="translate(72 72)"><path d="M0 35C14 7 35-2 65 0 49 8 40 18 35 31c13-8 27-11 42-8-20 6-33 17-40 33-3-13-15-20-37-21Z" fill="none" stroke="url(#gold)" stroke-width="3"/><text x="92" y="28" fill="#f7f8fb" font-family="Inter,Arial,sans-serif" font-size="30" font-weight="750" letter-spacing="4">EAGLE</text><text x="93" y="57" fill="#aeb7c3" font-family="Inter,Arial,sans-serif" font-size="15" font-weight="600" letter-spacing="5">COMMERCIAL</text></g>
  <text x="72" y="284" fill="#f8f9fb" font-family="Inter,Arial,sans-serif" font-size="66" font-weight="650"><tspan x="72" dy="0">Tecnología avanzada para</tspan><tspan x="72" dy="78">proteger, conectar y anticipar.</tspan></text>
  <text x="74" y="475" fill="#aeb8c6" font-family="Inter,Arial,sans-serif" font-size="24">Ingeniería e integración tecnológica para operaciones críticas.</text>
  <rect x="74" y="526" width="306" height="46" rx="23" fill="#d0ad6b"/><text x="103" y="556" fill="#0a0f18" font-family="Inter,Arial,sans-serif" font-size="17" font-weight="700" letter-spacing="1">EAGLECOMMERCIAL.COM.CO</text>
</svg>
