<svg xmlns="http://www.w3.org/2000/svg" viewBox="0 0 900 650" role="img" aria-labelledby="title desc">
  <title id="title">Logística e integración</title><desc id="desc">Ilustración conceptual original de logística, almacenamiento, comercio exterior y entrega técnica.</desc>
  <defs>
    <linearGradient id="bg" x1="0" y1="0" x2="1" y2="1"><stop stop-color="#111b2a"/><stop offset="1" stop-color="#070b12"/></linearGradient>
    <linearGradient id="gold" x1="0" x2="1"><stop stop-color="#f0d396"/><stop offset="1" stop-color="#b2884d"/></linearGradient>
    <filter id="glow"><feGaussianBlur stdDeviation="5" result="b"/><feMerge><feMergeNode in="b"/><feMergeNode in="SourceGraphic"/></feMerge></filter>
  </defs>
  <rect width="900" height="650" rx="38" fill="url(#bg)"/>
  <g fill="none" stroke-linecap="round" stroke-linejoin="round">
    <path d="M86 517h728" stroke="#899bad" stroke-opacity=".25"/>
    <path d="m132 298 218-123 218 123v219H132V298Z" fill="#0b1521" stroke="#8496aa" stroke-opacity=".36"/>
    <path d="M350 175v342M132 298h436" stroke="#8ea0b4" stroke-opacity=".22"/>
    <rect x="183" y="350" width="118" height="116" rx="8" stroke="#8193a6" stroke-opacity=".35"/><rect x="399" y="350" width="118" height="116" rx="8" stroke="#8193a6" stroke-opacity=".35"/>
    <path d="M183 388h118M399 388h118M242 350v116M458 350v116" stroke="#8193a6" stroke-opacity=".25"/>
    <path d="m184 350 58-34 59 34M400 350l58-34 59 34" stroke="#d6ae69" stroke-opacity=".48"/>

    <path d="M568 517h146v-90h-83l-33 41h-30v49Z" fill="#0d1724" stroke="#8a9cad" stroke-opacity=".42"/>
    <circle cx="604" cy="517" r="22" fill="#0a111b" stroke="#d6ae69"/><circle cx="680" cy="517" r="22" fill="#0a111b" stroke="#63c9ed"/><path d="M631 427v41h-33M646 447h52" stroke="#8fa0b2" stroke-opacity=".55"/>

    <path d="M350 175 674 117M674 117l96 59M674 117v206" stroke="#8798ab" stroke-opacity=".25"/>
    <g filter="url(#glow)"><circle cx="350" cy="175" r="7" fill="#d7af6b"/><circle cx="674" cy="117" r="7" fill="#65caef"/><circle cx="770" cy="176" r="7" fill="#d7af6b"/><circle cx="674" cy="323" r="7" fill="#65caef"/></g>
    <g fill="#0c1622" stroke="#8193a7" stroke-opacity=".32"><rect x="602" y="81" width="145" height="58" rx="18"/><rect x="720" y="161" width="118" height="58" rx="18"/><rect x="616" y="292" width="138" height="58" rx="18"/></g>
    <g stroke="#dce5ef" stroke-opacity=".44"><path d="M629 110h91M747 190h65M643 321h84"/></g>

    <path d="M93 565h272" stroke="url(#gold)" stroke-opacity=".45"/><path d="M563 565h249" stroke="#61c7eb" stroke-opacity=".38"/>
    <path d="M91 208c61-38 115-50 172-52" stroke="#63c9ed" stroke-opacity=".24" stroke-dasharray="6 10"/>
    <circle cx="86" cy="211" r="4" fill="#63c9ed"/>
  </g>
</svg>
