<svg xmlns="http://www.w3.org/2000/svg">
  <defs>
    <symbol id="icon-radar" viewBox="0 0 24 24"><path d="M12 12 19 5M12 12l5.5 3.3M12 12v8"/><circle cx="12" cy="12" r="2"/><path d="M4.2 19.8a11 11 0 0 1 0-15.6M7 17a7 7 0 0 1 0-10M19.8 19.8a11 11 0 0 0 0-15.6"/></symbol>
    <symbol id="icon-network" viewBox="0 0 24 24"><circle cx="5" cy="12" r="2.5"/><circle cx="19" cy="6" r="2.5"/><circle cx="19" cy="18" r="2.5"/><path d="m7.3 11 9.4-4M7.3 13l9.4 4M19 8.5v7"/></symbol>
    <symbol id="icon-wave" viewBox="0 0 24 24"><path d="M3 12h2l2-6 4 12 3-9 3 6 2-3h2"/></symbol>
    <symbol id="icon-shield" viewBox="0 0 24 24"><path d="M12 3 20 6v5c0 5.2-3.4 8.3-8 10-4.6-1.7-8-4.8-8-10V6l8-3Z"/><path d="m8.8 12 2 2 4.5-5"/></symbol>
    <symbol id="icon-target" viewBox="0 0 24 24"><circle cx="12" cy="12" r="8"/><circle cx="12" cy="12" r="3"/><path d="M12 2v3M12 19v3M2 12h3M19 12h3"/></symbol>
    <symbol id="icon-drone" viewBox="0 0 24 24"><path d="M8 10h8l2 4H6l2-4Zm4 4v5M9 19h6"/><circle cx="4" cy="7" r="2.5"/><circle cx="20" cy="7" r="2.5"/><path d="m6 8 3 2M18 8l-3 2M2 4h4M18 4h4"/></symbol>
    <symbol id="icon-eye" viewBox="0 0 24 24"><path d="M2.5 12s3.6-6 9.5-6 9.5 6 9.5 6-3.6 6-9.5 6-9.5-6-9.5-6Z"/><circle cx="12" cy="12" r="2.8"/></symbol>
    <symbol id="icon-search" viewBox="0 0 24 24"><circle cx="10.5" cy="10.5" r="6.5"/><path d="m15.2 15.2 5 5"/></symbol>
    <symbol id="icon-server" viewBox="0 0 24 24"><rect x="4" y="3" width="16" height="7" rx="2"/><rect x="4" y="14" width="16" height="7" rx="2"/><path d="M8 6.5h.01M8 17.5h.01M12 6.5h5M12 17.5h5"/></symbol>
    <symbol id="icon-bolt" viewBox="0 0 24 24"><path d="m13.5 2-8 12h6l-1 8 8-12h-6l1-8Z"/></symbol>
    <symbol id="icon-layers" viewBox="0 0 24 24"><path d="m12 3 9 5-9 5-9-5 9-5Z"/><path d="m4 12 8 4.5 8-4.5M4 16l8 4.5 8-4.5"/></symbol>
    <symbol id="icon-nodes" viewBox="0 0 24 24"><circle cx="12" cy="5" r="2.5"/><circle cx="5" cy="18" r="2.5"/><circle cx="19" cy="18" r="2.5"/><path d="m10.7 7.2-4.4 8.6M13.3 7.2l4.4 8.6M7.5 18h9"/></symbol>
    <symbol id="icon-building" viewBox="0 0 24 24"><path d="M4 21V7l8-4 8 4v14M2 21h20"/><path d="M8 10h1M8 14h1M8 18h1M15 10h1M15 14h1M15 18h1"/></symbol>
    <symbol id="icon-grid" viewBox="0 0 24 24"><rect x="3" y="3" width="7" height="7" rx="1"/><rect x="14" y="3" width="7" height="7" rx="1"/><rect x="3" y="14" width="7" height="7" rx="1"/><rect x="14" y="14" width="7" height="7" rx="1"/></symbol>
    <symbol id="icon-route" viewBox="0 0 24 24"><circle cx="6" cy="18" r="2.5"/><circle cx="18" cy="6" r="2.5"/><path d="M8.5 18H12c3.3 0 6-2.7 6-6V8.5M6 15.5V9c0-2.2 1.8-4 4-4h1"/></symbol>
    <symbol id="icon-factory" viewBox="0 0 24 24"><path d="M3 21V10l6 3V9l6 4V5h4l2 16H3Z"/><path d="M7 17h2M13 17h2M17 9h2"/></symbol>
    <symbol id="icon-lock" viewBox="0 0 24 24"><rect x="4" y="10" width="16" height="11" rx="2"/><path d="M8 10V7a4 4 0 0 1 8 0v3M12 14v3"/></symbol>
    <symbol id="icon-pulse" viewBox="0 0 24 24"><path d="M2 12h4l2.2-6 4.2 12 2.8-8 2.2 4H22"/></symbol>
    <symbol id="icon-message" viewBox="0 0 24 24"><path d="M4 4h16v12H8l-4 4V4Z"/><path d="M8 8h8M8 12h5"/></symbol>
    <symbol id="icon-settings" viewBox="0 0 24 24"><circle cx="12" cy="12" r="3"/><path d="M12 2v3M12 19v3M2 12h3M19 12h3M4.9 4.9 7 7M17 17l2.1 2.1M19.1 4.9 17 7M7 17l-2.1 2.1"/></symbol>
    <symbol id="icon-rocket" viewBox="0 0 24 24"><path d="M14 4c2.5-2 5.2-1.8 7-1-0.2 3.5-1.4 6.5-4 9l-4 4-5-5 4-4c.7-.7 1.4-1.4 2-2Z"/><circle cx="16.5" cy="7.5" r="1.5"/><path d="M8 11H4l-2 4 6 1M13 16v4l-4 2-1-6M5 19l-2 2"/></symbol>
    <symbol id="icon-life" viewBox="0 0 24 24"><circle cx="12" cy="12" r="9"/><circle cx="12" cy="12" r="3"/><path d="m5.6 5.6 4.3 4.3M14.1 14.1l4.3 4.3M18.4 5.6l-4.3 4.3M9.9 14.1l-4.3 4.3"/></symbol>
    <symbol id="icon-compass" viewBox="0 0 24 24"><circle cx="12" cy="12" r="9"/><path d="m15.5 8.5-2 5-5 2 2-5 5-2Z"/></symbol>
    <symbol id="icon-globe" viewBox="0 0 24 24"><circle cx="12" cy="12" r="9"/><path d="M3 12h18M12 3c2.3 2.5 3.5 5.5 3.5 9S14.3 18.5 12 21c-2.3-2.5-3.5-5.5-3.5-9S9.7 5.5 12 3Z"/></symbol>
    <symbol id="icon-box" viewBox="0 0 24 24"><path d="m12 3 9 5-9 5-9-5 9-5Z"/><path d="M3 8v9l9 5 9-5V8M12 13v9"/></symbol>
    <symbol id="icon-book" viewBox="0 0 24 24"><path d="M4 4h7a3 3 0 0 1 3 3v13a3 3 0 0 0-3-3H4V4Z"/><path d="M20 4h-3a3 3 0 0 0-3 3v13a3 3 0 0 1 3-3h3V4Z"/></symbol>
    <symbol id="icon-headset" viewBox="0 0 24 24"><path d="M4 13v-2a8 8 0 0 1 16 0v2"/><rect x="3" y="12" width="4" height="7" rx="2"/><rect x="17" y="12" width="4" height="7" rx="2"/><path d="M17 19c0 2-2 2-5 2"/></symbol>
    <symbol id="icon-tools" viewBox="0 0 24 24"><path d="m14 6 4-4 4 4-4 4M16 8 8 16"/><path d="M7 13 3 17a2.8 2.8 0 0 0 4 4l4-4M6 5l13 13"/></symbol>
    <symbol id="icon-refresh" viewBox="0 0 24 24"><path d="M20 7V3l-3 3a8 8 0 1 0 2.3 8"/><path d="M20 3h-4"/></symbol>
    <symbol id="icon-document" viewBox="0 0 24 24"><path d="M6 2h8l4 4v16H6V2Z"/><path d="M14 2v5h5M9 12h6M9 16h6"/></symbol>
    <symbol id="icon-warehouse" viewBox="0 0 24 24"><path d="m3 9 9-6 9 6v12H3V9Z"/><path d="M7 21v-8h10v8M7 16h10"/></symbol>
    <symbol id="icon-arrow" viewBox="0 0 24 24"><path d="M5 12h14M14 7l5 5-5 5"/></symbol>
    <symbol id="icon-check" viewBox="0 0 24 24"><path d="m5 12 4 4L19 6"/></symbol>
    <symbol id="icon-menu" viewBox="0 0 24 24"><path d="M4 7h16M4 12h16M4 17h16"/></symbol>
    <symbol id="icon-close" viewBox="0 0 24 24"><path d="m5 5 14 14M19 5 5 19"/></symbol>
    <symbol id="icon-mail" viewBox="0 0 24 24"><rect x="3" y="5" width="18" height="14" rx="2"/><path d="m4 7 8 6 8-6"/></symbol>
    <symbol id="icon-phone" viewBox="0 0 24 24"><path d="M7 3 4 5c-1 6 8 15 14 14l2-3-5-3-2 2c-2.7-1.4-4.6-3.3-6-6l2-2-2-4Z"/></symbol>
    <symbol id="icon-map" viewBox="0 0 24 24"><path d="M12 22s7-6.1 7-13a7 7 0 1 0-14 0c0 6.9 7 13 7 13Z"/><circle cx="12" cy="9" r="2.5"/></symbol>
    <symbol id="icon-clock" viewBox="0 0 24 24"><circle cx="12" cy="12" r="9"/><path d="M12 7v5l3 2"/></symbol>
    <symbol id="icon-chevron" viewBox="0 0 24 24"><path d="m8 14 4-4 4 4"/></symbol>
    <symbol id="icon-key" viewBox="0 0 24 24"><circle cx="8" cy="15" r="4"/><path d="m11 12 9-9M17 6l2 2M14 9l2 2"/></symbol>
    <symbol id="icon-user" viewBox="0 0 24 24"><circle cx="12" cy="8" r="4"/><path d="M4 21a8 8 0 0 1 16 0"/></symbol>
  </defs>
</svg>
